<?xml version="1.0" standalone="no"?><!DOCTYPE svg PUBLIC "-//W3C//DTD SVG 1.1//EN" "http://www.w3.org/Graphics/SVG/1.1/DTD/svg11.dtd"><svg t="1584588856317" class="icon" viewBox="0 0 1024 1024" version="1.1" xmlns="http://www.w3.org/2000/svg" p-id="1310" xmlns:xlink="http://www.w3.org/1999/xlink" width="200" height="200"><defs><style type="text/css"></style></defs><path d="M508.625 329.375c-100.875 0-182.625 82.125-182.625 182.625 0 100.875 82.125 182.625 182.625 182.625 100.875 0 182.625-82.125 182.625-182.625 0-100.875-82.125-182.625-182.625-182.625z m22.5 283.875l-9.375 3.75v32.25h-25.875V617l-9.375-3.75c-18-7.5-31.125-22.5-36-40.875h27.375c5.625 11.25 17.25 19.125 31.125 19.125 19.125 0 34.5-15.375 34.5-34.5 0-16.875-13.875-30.75-30.75-30.75H508.25c-33 0-60-27-60-60 0-24.75 15-46.875 37.875-55.875l9.375-3.75v-32.25h25.875v32.25l9.375 3.75c18.375 7.5 31.875 23.25 36.375 42h-27.375c-5.25-12-17.625-20.25-31.5-20.25-19.125 0-34.5 15.375-34.5 34.5 0 18.75 15.375 34.125 34.125 34.125h4.125c31.125 0 56.625 25.5 56.625 56.625 0.375 24.75-14.625 46.875-37.5 55.875z" fill="#FFD552" p-id="1311"></path><path d="M546.5 869h-76.125l-23.625-57.375c-21.75-4.5-43.5-11.625-63.75-21l-52.875 33L268.25 779l15-61.5c-13.5-15-25.5-31.5-36-49.125l-64.125-3.375-24.75-72L208.25 549.5c-1.125-11.625-1.875-22.875-1.875-33.375 0-11.25 0.75-22.875 2.25-34.875l-51-43.5 23.625-72.375L249.5 360.125c10.125-17.25 22.125-33 35.625-47.625l-16.125-67.5 61.875-44.625 60 37.5c17.25-7.5 35.25-13.125 53.25-16.875l27-65.625h76.125l27 65.625c18 4.125 36 9.75 53.25 16.875l60-37.5L748.25 244.625l-16.125 67.5c12.375 13.5 23.25 27.75 32.625 43.125l68.625 3.75 24.75 72-49.875 44.25c1.875 13.5 2.625 27 2.625 40.5 0 9.375-0.375 18.75-1.125 28.125l50.25 42.75-23.625 72.375-63.75 4.875c-10.875 19.125-24 37.5-38.625 54l15 61.5-61.875 44.625-52.875-33c-20.625 9.375-42 16.5-63.75 21l-24 57z m-68.25-11.25h60.75l22.875-55.875 3-0.75c22.875-4.5 45.75-12 67.125-21.75l2.625-1.125 51.75 32.25 49.5-35.625-14.625-60 1.875-2.25c15.75-17.25 29.625-36.375 40.875-57l1.5-2.625 62.625-4.5 18.75-57.75-49.125-41.625 0.375-3c1.125-9.75 1.5-19.875 1.5-30 0-13.875-1.125-27.75-3-42l-0.375-3 49.125-43.5-19.875-57.75-67.125-3.75-1.5-2.625c-10.125-16.125-21.75-31.875-34.875-46.125l-2.25-2.25 15.75-66-49.5-35.625-58.5 36.375-2.625-1.125c-18.375-7.875-37.5-14.25-56.625-18l-3-0.75-26.25-64.125H478.25l-26.25 64.125-3 0.75c-19.5 4.125-38.625 10.125-56.625 18l-2.625 1.125-58.5-36.375L281.375 249.5l15.75 66-2.25 2.25c-14.25 15.375-27 32.25-37.5 50.625l-1.5 2.625-67.125 4.875-18.75 57.75 49.875 42.375-0.375 3c-1.5 13.125-2.25 24.75-2.25 36.75 0 11.25 0.75 22.875 2.25 35.25l0.375 3-48.375 42.375 19.875 57.75 62.625 3.375 1.5 2.625c10.875 18.75 23.625 36.375 37.875 52.125l1.875 2.25-14.625 60 49.5 35.625 51.75-32.25 2.625 1.125c21.375 10.125 43.875 17.25 67.125 21.75l3 0.75 23.625 56.25z" fill="#4A555F" p-id="1312"></path><path d="M508.625 719.375c-4.125 0-7.875 0-11.625-0.375l0.75-11.25c3.75 0.375 7.5 0.375 10.875 0.375v11.25z m11.625-0.375l-0.75-11.25c3.75-0.375 7.5-0.375 10.875-0.75l1.125 11.25c-3.375 0-7.125 0.375-11.25 0.75z m-34.875-1.125c-3.75-0.375-7.875-1.125-11.625-1.5l1.875-11.25c3.75 0.75 7.125 1.125 10.875 1.5l-1.125 11.25z m58.125-1.5l-1.875-11.25c3.75-0.75 7.125-1.5 10.875-2.25l2.625 10.875c-4.125 1.125-7.875 1.875-11.625 2.625z m-81-2.25c-3.75-0.75-7.5-1.875-11.25-3l3-10.875c3.375 1.125 7.125 1.875 10.5 2.625l-2.25 11.25z m103.5-3l-3-10.875c3.375-1.125 7.125-2.25 10.5-3.375l3.75 10.5c-3.75 1.5-7.5 2.625-11.25 3.75z m-126-3.375c-3.75-1.125-7.125-2.625-10.875-4.125l4.5-10.5c3.375 1.5 6.75 2.625 10.125 3.75l-3.75 10.875z m148.125-4.5l-4.5-10.5 10.125-4.5 4.875 10.125c-3.375 1.875-7.125 3.75-10.5 4.875z m-169.5-4.5c-3.375-1.5-7.125-3.375-10.5-5.25l5.625-9.75c3 1.875 6.375 3.375 9.75 4.875l-4.875 10.125z m190.125-5.25l-5.625-9.75c3-1.875 6.375-3.75 9.375-5.625l6 9.75c-3 1.5-6.375 3.75-9.75 5.625z m-210.375-6c-3.375-1.875-6.375-4.125-9.75-6.375l6.375-9.375c3 2.25 6 4.125 9 6l-5.625 9.75z m230.25-6.375l-6.375-9.375c3-2.25 6-4.5 8.625-6.75l7.125 9c-3.375 2.25-6.375 4.875-9.375 7.125z m-249.375-7.125c-3-2.25-6-4.875-9-7.5l7.5-8.25c2.625 2.625 5.625 4.875 8.25 7.125l-6.75 8.625z m267.375-7.5l-7.5-8.25c2.625-2.625 5.25-4.875 7.875-7.5l7.875 7.875c-2.625 2.625-5.25 5.25-8.25 7.875zM362 658.625c-2.625-2.625-5.625-5.625-7.875-8.625l8.625-7.5c2.25 2.625 4.875 5.25 7.5 7.875l-8.25 8.25z m301.125-8.625l-8.25-7.5c2.25-2.625 4.875-5.625 7.125-8.25l9 7.125c-2.625 2.625-5.25 5.625-7.875 8.625z m-316.5-9c-2.25-3-4.875-6-7.125-9.375l9.375-6.375c2.25 3 4.5 6 6.75 8.625l-9 7.125z m331.125-9l-9.375-6.375c2.25-3 4.125-6 6-9l9.75 6c-2.25 2.625-4.125 6-6.375 9.375z m-344.625-9.75c-1.875-3.375-4.125-6.75-6-10.125l9.75-5.625c1.875 3 3.75 6.375 5.625 9.375l-9.375 6.375z m357-10.125l-9.75-5.625c1.875-3.375 3.375-6.375 4.875-9.75l10.125 4.875c-1.875 3.75-3.375 7.125-5.25 10.5zM321.875 602c-1.5-3.375-3.375-7.125-4.875-10.5l10.5-4.5 4.5 10.125-10.125 4.875z m378.375-10.875l-10.5-4.5c1.5-3.375 2.625-6.75 3.75-10.125l10.5 3.75c-1.125 3.75-2.625 7.5-3.75 10.875z m-387.375-10.5c-1.125-3.75-2.625-7.5-3.375-11.25l10.875-3c1.125 3.375 2.25 7.125 3.375 10.5l-10.875 3.75z m394.875-11.25l-10.875-3c1.125-3.375 1.875-7.125 2.625-10.5l10.875 2.625c-0.75 3.375-1.5 7.125-2.625 10.875z m-401.25-11.25l-2.25-11.25 11.25-1.875c0.75 3.75 1.5 7.125 2.25 10.875l-11.25 2.25z m406.5-11.625l-11.25-1.875c0.75-3.75 1.125-7.125 1.5-10.875l11.25 1.125c-0.375 4.125-1.125 7.875-1.5 11.625z m-410.25-11.25c-0.375-3.75-0.75-7.875-1.125-11.625l11.25-0.75c0.375 3.75 0.375 7.5 0.75 10.875l-10.875 1.5z m412.875-11.625l-11.25-0.75c0.375-3.75 0.375-7.125 0.375-10.875h11.25c-0.375 3.75-0.375 7.5-0.375 11.625z m-414.375-10.5v-1.125c0-3.75 0-7.875 0.375-11.625l11.25 0.75c-0.375 3.375-0.375 7.125-0.375 10.5v0.375h-5.625l-5.625 1.125z m402.75-12.375c-0.375-3.75-0.375-7.125-0.75-10.875l11.25-1.125c0.375 3.75 0.75 7.875 1.125 11.625l-11.625 0.375z m-390.375-10.5l-11.25-1.125c0.375-3.75 1.125-7.5 1.5-11.625l11.25 1.875c-0.375 3.375-0.75 7.125-1.5 10.875z m388.125-11.25c-0.75-3.75-1.5-7.125-2.25-10.875l10.875-2.625 2.25 11.25-10.875 2.25z m-384.375-10.5l-10.875-2.625c0.75-3.75 1.875-7.5 3-11.25l10.875 3c-1.125 3.75-2.25 7.125-3 10.875z m379.5-10.875c-1.125-3.375-2.25-7.125-3.375-10.5l10.5-3.75c1.125 3.75 2.625 7.5 3.375 11.25l-10.5 3z m-373.5-10.125l-10.5-3.75c1.125-3.75 2.625-7.5 4.125-10.875l10.5 4.5c-1.5 3-2.625 6.375-4.125 10.125z m366-10.5l-4.5-10.125 10.125-4.875c1.5 3.375 3.375 7.125 4.875 10.5l-10.5 4.5zM332 426.875l-10.125-4.875c1.5-3.375 3.375-7.125 5.25-10.5l9.75 5.625c-1.5 3.375-3.375 6.75-4.875 9.75z m348-9.75c-1.875-3.375-3.75-6.375-5.625-9.375l9.75-6c1.875 3.375 4.125 6.75 6 10.125l-10.125 5.25z m-337.5-9.375l-9.75-6c1.875-3.375 4.125-6.375 6.375-9.75l9.375 6.375c-1.875 3.375-4.125 6.375-6 9.375z m325.875-9c-2.25-3-4.5-6-6.75-8.625l9-7.125c2.25 3 4.875 6 7.125 9.375l-9.375 6.375z m-313.125-9l-9-7.125c2.25-3 4.875-6 7.5-9l8.25 7.5c-1.875 3-4.5 6-6.75 8.625z m299.25-8.25c-2.25-2.625-4.875-5.25-7.5-7.875l7.875-7.875c2.625 2.625 5.25 5.625 7.875 8.625l-8.25 7.125z m-284.625-7.875L362 365.375c2.625-2.625 5.625-5.25 8.625-7.875l7.5 8.25c-3 2.625-5.625 5.25-8.25 7.875z m269.25-7.875c-2.625-2.25-5.625-4.875-8.25-7.125l7.125-9c3 2.25 6 4.875 9 7.5l-7.875 8.625z m-252.75-6.75l-7.125-9c3-2.25 6-4.875 9.375-7.125l6.375 9.375c-3 2.25-5.625 4.125-8.625 6.75z m235.5-6.75c-3-2.25-6-4.125-9-6l6-9.75c3.375 2.25 6.375 4.125 9.75 6.375l-6.75 9.375z m-217.5-6l-6-9.75c3.375-2.25 6.75-4.125 10.125-6l5.625 9.75c-3.75 1.875-6.75 3.75-9.75 6z m198.75-5.625c-3.375-1.875-6.375-3.375-9.75-4.875l4.875-10.125c3.375 1.5 7.125 3.375 10.5 5.25l-5.625 9.75z m-179.625-5.25l-4.875-10.125c3.375-1.5 7.125-3.375 10.5-4.875l4.5 10.5-10.125 4.5z m159.75-4.5c-3.375-1.5-6.75-2.625-10.125-3.75l3.75-10.5c3.75 1.125 7.5 2.625 10.875 4.125l-4.5 10.125z m-139.5-3.75l-3.75-10.5c3.75-1.125 7.5-2.625 11.25-3.375l3 10.875c-3.75 0.75-7.125 1.875-10.5 3z m118.875-3.375c-3.375-1.125-7.125-1.875-10.5-2.625l2.625-10.875c3.75 0.75 7.5 1.875 11.25 3l-3.375 10.5z m-97.875-2.625l-2.625-10.875 11.25-2.25 1.875 11.25c-3.375 0.375-6.75 0.75-10.5 1.875z m76.5-2.25c-3.75-0.75-7.125-1.125-10.875-1.5l1.125-11.25c3.75 0.375 7.875 1.125 11.625 1.5l-1.875 11.25z m-54.75-1.5l-1.125-11.25c3.75-0.375 7.875-0.75 11.625-1.125l0.75 11.25c-4.125 0.375-7.5 0.75-11.25 1.125z m33-1.125c-3.75-0.375-7.125-0.375-10.875-0.375v-11.25c3.75 0 7.875 0 11.625 0.375l-0.75 11.25z" fill="#4A555F" p-id="1313"></path><path d="M486.875 844.625l-22.125-54.375-10.125-1.875c-22.125-4.125-43.5-11.25-63.75-21l-9.375-4.5-50.25 31.125-34.875-25.5 13.875-58.125-6.75-7.5c-13.875-15-25.875-31.875-36.375-49.875l-5.25-9-60.75-3.375-14.25-40.875 46.875-41.25-1.125-9.75c-1.5-12-2.25-22.875-2.25-33.75 0-11.25 0.75-22.5 2.25-34.875l1.125-10.125-48.75-41.25 13.5-41.25 64.875-4.875 4.875-8.625c10.125-17.25 22.5-33.75 36-48.375l6.75-7.5-15.375-64.5 34.875-25.125L388.25 265.25l9-4.125c17.625-7.5 35.625-13.5 54-17.25l9.75-1.875 25.5-62.25h43.125l25.5 62.25 9.75 1.875c18.375 3.75 36.75 9.75 54 17.25l9 4.125 57-35.25 34.875 25.125-15.375 64.5 6.75 7.5c12.75 13.5 24 28.5 33.375 43.875l5.25 8.25 65.25 3.75 14.25 40.875-47.25 42 1.5 10.125c1.875 13.5 3 27 3 40.125 0 9.375-0.375 19.125-1.5 28.5l-1.125 9.75 47.625 40.5-13.5 41.25-60.75 4.5-4.875 9c-10.5 19.5-23.625 37.5-39 54.375l-6.75 7.5 13.875 58.125-34.875 25.125-50.25-31.125-9.375 4.5c-20.25 9.75-42 16.5-63.75 21l-10.125 1.875-22.125 54.375h-43.125z m21.75-553.125c-121.5 0-220.5 99-220.5 220.5s99 220.5 220.5 220.5 220.5-99 220.5-220.5-99-220.5-220.5-220.5z" fill="#F68F6F" p-id="1314"></path><path d="M950 454.625c-28.5-221.25-218.25-387.75-441.375-387.75S95.75 233.375 67.25 454.625l-11.25-1.5c29.25-226.5 223.875-397.5 452.625-397.5s423.375 171 452.625 397.5l-11.25 1.5zM508.625 968.375c-105.375 0-208.5-36.75-289.875-103.875-80.25-66-136.125-158.25-157.125-259.5l11.25-2.25c20.625 98.625 75 188.625 153 252.75 79.5 65.25 179.625 101.25 282.75 101.25 103.125 0 203.25-36 282.75-101.25 78.375-64.5 132.75-154.125 153-252.75l11.25 2.25c-21 101.25-76.875 193.125-157.125 259.5-81.375 67.125-184.5 103.875-289.875 103.875z" fill="#4A555F" p-id="1315"></path><path d="M956.75 461.75l-49.125-37.5 7.125-9 39.375 30.375 28.5-42.75 9.375 6.375zM41.75 651.5L32 645.875 63.125 590.75l51.75 34.5-6 9.375-41.625-27.75z" fill="#4A555F" p-id="1316"></path><path d="M495.5 649.625v-32.25l-9.375-3.75c-18-7.5-31.125-22.5-36-40.875h27.375c5.625 11.25 17.25 19.125 31.125 19.125 19.125 0 34.5-15.375 34.5-34.5 0-16.875-13.875-30.75-30.75-30.75H508.25c-33 0-60-27-60-60 0-24.75 15-46.875 37.875-55.875l9.375-3.75v-32.25h25.875v32.25l9.375 3.75c18.375 7.5 31.875 23.25 36.375 41.625h-27.375c-5.25-12-17.625-20.25-31.5-20.25-19.125 0-34.5 15.375-34.5 34.5 0 18.75 15.375 34.125 34.125 34.125h4.125c31.125 0 56.625 25.5 56.625 56.625 0 24.75-15 46.875-37.875 55.875l-9.375 3.75v32.25h-25.875z" fill="#F68F6F" p-id="1317"></path><path d="M527 655.25h-37.125v-34.125l-6-2.25c-19.5-7.875-34.125-24.375-39.375-44.625l-1.875-7.125h38.25l1.5 3c4.875 10.125 15 16.125 25.875 16.125 15.75 0 28.875-12.75 28.875-28.875 0-13.875-11.25-25.125-25.125-25.125h-3.75c-36.375 0-65.625-29.625-65.625-65.625 0-27 16.125-51 41.625-61.125l6-2.25v-34.125h37.125V403.25l6 2.25c19.875 7.875 34.5 25.125 39.75 45.75l1.5 7.125h-38.25l-1.5-3.375c-4.5-10.125-15-16.875-26.25-16.875-15.75 0-28.875 12.75-28.875 28.875 0 15.75 12.75 28.5 28.5 28.5h4.125c34.5 0 62.25 27.75 62.25 62.25 0 27-16.125 51-41.625 61.125l-6 2.25v34.125z m-25.875-11.25h14.625V613.25l13.125-5.25c21-8.25 34.5-28.5 34.5-50.625 0-28.125-22.875-51-51-51H508.25c-22.125 0-39.75-18-39.75-39.75 0-22.125 18-40.125 40.125-40.125 14.625 0 27.75 7.875 34.875 20.25h16.125c-5.25-13.875-16.5-25.125-30.75-30.75L515.75 410.75v-30.375h-14.625v30.375l-13.125 5.25c-21 8.25-34.5 28.5-34.5 50.625 0 30 24.375 54.375 54.375 54.375h4.125c19.875 0 36.375 16.125 36.375 36.375 0 22.125-18 40.125-40.125 40.125-14.25 0-27-7.125-34.125-19.125h-16.5c5.625 13.5 16.125 24.375 30.375 30l13.125 5.25v30.375z" fill="#4A555F" p-id="1318"></path></svg>