<?xml version="1.0" standalone="no"?><!DOCTYPE svg PUBLIC "-//W3C//DTD SVG 1.1//EN" "http://www.w3.org/Graphics/SVG/1.1/DTD/svg11.dtd"><svg t="1584588891756" class="icon" viewBox="0 0 1024 1024" version="1.1" xmlns="http://www.w3.org/2000/svg" p-id="1593" xmlns:xlink="http://www.w3.org/1999/xlink" width="200" height="200"><defs><style type="text/css"></style></defs><path d="M478.208 824.32l-358.912 3.584-4.608-618.496 359.424-3.584zM524.288 250.368h-33.28l-0.512-44.544 33.28-0.512zM524.8 308.224l-33.28 0.512-0.512-45.056h33.28zM525.312 366.592l-33.28 0.512L491.52 322.56l33.28-0.512zM525.312 425.472l-33.28 0.512v-45.056h33.28zM525.824 484.352h-33.28v-44.544l33.28-0.512zM526.336 542.72l-33.28 0.512-0.512-45.056h33.28zM526.848 601.6h-33.28l-0.512-44.544 33.28-0.512zM527.36 663.552l-33.28 0.512-0.512-45.056h33.28zM527.872 721.92l-33.28 0.512-0.512-44.544 33.28-0.512zM527.872 780.8l-33.28 0.512v-45.056h33.28zM528.384 824.32h-33.28v-29.184l33.28-0.512zM98.304 253.952l-33.28 0.512-0.512-44.544 33.28-0.512zM98.816 312.32h-33.28l-0.512-44.544 33.28-0.512zM99.328 370.688l-33.28 0.512-0.512-44.544 33.28-0.512zM99.84 429.568h-33.792v-44.544l33.28-0.512zM99.84 487.936l-33.28 0.512v-44.544l33.28-0.512zM100.352 546.816h-33.28v-44.544h33.28zM100.864 605.184l-33.28 0.512-0.512-44.544 33.28-0.512zM101.376 667.648h-33.28l-0.512-44.544 33.28-0.512zM101.888 726.016l-33.28 0.512-0.512-44.544 33.28-0.512zM102.4 784.896h-33.28l-0.512-44.544 33.28-0.512zM102.4 827.904l-33.28 0.512v-29.184l33.28-0.512z" fill="#003F70" p-id="1594"></path><path d="M374.784 468.992c30.72 59.392-77.824 129.024-77.824 129.024s-102.4-59.904-80.896-124.416c23.552-68.608 82.944-5.632 82.944-5.632s48.128-51.712 75.776 1.024z" fill="#F9515E" p-id="1595"></path><path d="M795.136 884.224l-443.904-124.416L502.784 162.304l443.904 123.904z" fill="#FFFFFF" p-id="1596"></path><path d="M770.56 851.968l-347.136-97.28 151.552-598.016 347.136 97.28zM959.488 310.784l-32.256-9.216 11.264-43.008 32.256 9.216zM945.152 367.104l-31.744-9.216 10.752-43.008 32.256 8.704zM930.816 423.424l-32.256-8.704 11.264-43.52 32.256 9.216zM916.48 480.256l-32.256-9.216 11.264-43.008 32.256 9.216zM902.144 536.576l-32.256-8.704 11.264-43.008 32.256 8.704zM887.808 593.408l-32.256-8.704 11.264-43.52 32.256 9.216zM873.472 650.24l-32.256-9.216 11.264-43.008 31.744 9.216zM858.112 710.144l-32.256-9.216 11.264-43.008 32.256 9.216zM843.776 766.976l-32.256-9.216 11.264-43.008 32.256 8.704zM829.44 823.296l-32.256-8.704 11.264-43.52 32.256 9.216zM818.688 865.28l-32.256-9.216 7.68-28.16 31.744 9.216zM547.84 195.584l-32.256-9.216 11.264-43.008 32.256 9.216zM534.016 251.904L501.76 242.688l10.752-43.008 32.256 8.704zM519.168 308.224l-31.744-8.704 10.752-43.52 32.256 9.216zM504.832 365.056l-32.256-9.216 11.264-43.008 32.256 9.216zM490.496 421.376l-32.256-8.704 11.264-43.008 32.256 8.704zM476.16 478.208l-32.256-8.704 11.264-43.52 32.256 9.216zM461.824 535.04l-32.256-9.216 11.264-43.008 32.256 9.216zM446.464 594.944l-32.256-9.216 11.264-43.008 32.256 9.216zM432.128 651.776l-32.256-9.216 11.264-43.008 32.256 8.704zM417.792 708.096l-32.256-8.704 11.264-43.52 32.256 9.216zM407.04 750.08l-31.744-9.216 7.168-28.16L414.72 721.92z" fill="#003F70" p-id="1597"></path><path d="M760.32 480.256c14.848 66.048-107.52 102.912-107.52 102.912S568.832 496.64 606.208 440.32c39.936-59.904 81.408 17.92 81.408 17.92s59.392-36.864 72.704 22.016z" fill="#F9515E" p-id="1598"></path></svg>